# xmcd
#
# Track frame offsets:
#	150
#	37974
#	62281
#	94393
#	130046
#	201710
#	227594
#	258647
#	278458
#	310453
#	331206
#
# Disc length: 4756 seconds
#
# Revision: 1
# Processed by: cddbd v1.5.2PL0 Copyright (c) Steve Scherf et al.
# Submitted via: audiograbber 1.83.01
#
DISCID=9912920b
DTITLE=Grateful Dead - 73-03-21 Utica Memorial Auditorium, Utica NY
DYEAR=1900
DGENRE=
TTITLE0=Loser
TTITLE1=El Paso
TTITLE2=China Cat Sunflower
TTITLE3=I Know You Rider
TTITLE4=Playing In The Band
TTITLE5=Greatest Story Ever Told
TTITLE6=They Love Each Other
TTITLE7=Mexicali Blues
TTITLE8=Brown Eyed Women
TTITLE9=Big River
TTITLE10=Brokedown Place
EXTD=
EXTT0=
EXTT1=
EXTT2=
EXTT3=
EXTT4=
EXTT5=
EXTT6=
EXTT7=
EXTT8=
EXTT9=
EXTT10=
PLAYORDER=
